<?xml version="1.0" standalone="no"?>
<!DOCTYPE svg PUBLIC "-//W3C//DTD SVG 20010904//EN"
 "http://www.w3.org/TR/2001/REC-SVG-20010904/DTD/svg10.dtd">
<svg version="1.0" xmlns="http://www.w3.org/2000/svg"
 width="460.000000pt" height="460.000000pt" viewBox="0 0 460.000000 460.000000"
 preserveAspectRatio="xMidYMid meet">
<metadata>
Created by potrace 1.14, written by Peter Selinger 2001-2017
</metadata>
<g transform="translate(0.000000,460.000000) scale(0.100000,-0.100000)"
fill="#000000" stroke="none">
<path d="M619 4583 c0 -10 -2 -27 -4 -38 -2 -11 -7 -42 -10 -70 -4 -27 -13
-86 -20 -130 -8 -44 -16 -100 -20 -125 -3 -25 -10 -70 -16 -100 -13 -79 -16
-97 -28 -175 -6 -38 -13 -81 -15 -95 -3 -14 -21 -117 -41 -230 -41 -237 -39
-224 -59 -315 -32 -144 -9 -107 -253 -407 l-153 -187 0 -108 1 -108 27 35 c15
19 108 133 207 255 220 270 251 311 270 365 32 92 131 641 215 1200 17 113 33
215 35 228 5 21 3 22 -65 22 -60 0 -70 -3 -71 -17z"/>
<path d="M1119 4448 c0 -84 -2 -162 -4 -173 -1 -11 -6 -65 -9 -120 -4 -55 -14
-143 -22 -195 -37 -229 -11 -370 76 -415 46 -24 94 -18 168 19 150 75 431 164
727 230 234 52 416 73 785 91 398 19 457 28 485 68 10 15 15 46 15 107 0 47
11 182 25 300 14 118 25 221 25 228 0 8 -19 12 -65 12 l-64 0 -5 -32 c-9 -61
-18 -133 -22 -183 -2 -27 -6 -63 -9 -80 -6 -45 -16 -143 -19 -203 -2 -30 -7
-57 -12 -62 -9 -9 -96 -16 -299 -25 -188 -8 -355 -19 -457 -30 -134 -14 -154
-16 -168 -20 -8 -2 -35 -7 -60 -10 -64 -9 -349 -72 -455 -101 -182 -51 -382
-121 -483 -171 -28 -15 -55 -24 -58 -21 -19 20 -19 176 1 277 5 25 8 44 20
141 6 50 15 238 19 408 l2 112 -68 0 -68 0 -1 -152z"/>
<path d="M3826 4578 c-16 -72 -39 -342 -40 -458 -1 -153 12 -215 53 -253 14
-14 66 -41 115 -61 100 -40 246 -123 349 -199 69 -50 109 -96 230 -266 l67
-95 0 111 0 111 -57 73 c-31 41 -75 91 -97 112 -88 82 -331 228 -459 275 -43
16 -54 25 -63 53 -12 34 -11 183 0 294 4 33 9 84 12 113 3 29 7 61 9 70 1 9 6
45 10 80 l7 62 -66 0 c-60 0 -66 -2 -70 -22z"/>
<path d="M3770 2613 c-144 -20 -225 -50 -288 -107 -45 -41 -61 -76 -55 -121 6
-41 27 -61 78 -74 69 -17 124 -13 249 18 176 45 256 96 256 166 0 68 -132 134
-240 118z"/>
<path d="M2775 2054 c-99 -65 -319 -171 -390 -188 -99 -25 -221 -36 -392 -36
l-163 0 6 -57 c4 -32 8 -59 9 -61 1 -1 83 -3 181 -4 291 -1 422 26 635 132 80
40 246 137 268 156 4 4 -72 103 -79 103 -3 0 -36 -20 -75 -45z"/>
<path d="M905 1864 c-173 -30 -262 -79 -300 -164 -17 -38 -17 -45 -4 -68 40
-71 178 -87 342 -38 116 35 157 57 201 107 40 47 47 89 20 127 -32 47 -124 59
-259 36z"/>
</g>
</svg>
